<svg xmlns="http://www.w3.org/2000/svg" viewBox="0 0 98 118"><defs><style>.cls-1{fill:none;stroke:#0089c9;stroke-linecap:round;stroke-linejoin:round;stroke-width:3px;}</style></defs><title>beer</title><g id="Слой_2" data-name="Слой 2"><g id="Слой_1-2" data-name="Слой 1"><path class="cls-1" d="M75.5,32.5v71a13.18,13.18,0,0,1-13.13,13H24.59c-7.31,0-15.09-6-15.09-13v-70"/><path class="cls-1" d="M84.5,18.5c0-9.5-6.69-12-15-12-3.45,0-6.46.43-9,2-2.67-4.55-8.74-7-15-7a15.4,15.4,0,0,0-13,7,15.8,15.8,0,0,0-7-2c-6.57,0-11.86,4.05-13,10a8.91,8.91,0,0,0-2,0c-4.82,0-9,3.41-9,8a9.36,9.36,0,0,0,9,9c2,0,4.52-1.91,6-3h7c.18,5.08,4.84,11,11,11s12.13-3.79,12.13-9H76S84.54,26.09,84.5,18.5Z"/><line class="cls-1" x1="42.43" y1="49.5" x2="42.43" y2="97.5"/><line class="cls-1" x1="25.5" y1="49.5" x2="25.5" y2="97.5"/><line class="cls-1" x1="58.5" y1="49.5" x2="58.5" y2="97.5"/><path class="cls-1" d="M78.2,97.91l-2.7-.41v-50l2.7-.92A18.36,18.36,0,0,1,96.5,64.5v17C96.5,90.59,89.7,97.5,78.2,97.91Z"/></g></g></svg>