<svg xmlns="http://www.w3.org/2000/svg" viewBox="0 0 103.91 104.31"><defs><style>.cls-1,.cls-2{fill:none;stroke:#5a6ba0;stroke-linecap:round;stroke-linejoin:round;}.cls-1{stroke-width:3px;}.cls-2{stroke-width:2px;}</style></defs><title>hair</title><g id="Слой_2" data-name="Слой 2"><g id="Слой_1-2" data-name="Слой 1"><path class="cls-1" d="M32.9,100.87c-5-3.5-5.43-11.08-1.9-16A10.93,10.93,0,0,1,46.2,82c5,3.5,6.38,11.08,2.85,16S37.87,104.37,32.9,100.87Z"/><path class="cls-1" d="M3.46,69.8A10.7,10.7,0,0,1,6.31,54.73,10.91,10.91,0,0,1,21.5,57.56a10.69,10.69,0,0,1-2.85,15.06A10.92,10.92,0,0,1,3.46,69.8Z"/><path class="cls-2" d="M66.15,37.78,91.32,1.5h0S81.94,9.9,79.45,13.3l-23.75,32"/><polyline class="cls-2" points="47.7 56.2 41.45 64.15 46.2 66.05 58.97 48.09"/><polyline class="cls-1" points="46.2 82.04 42.85 75.98 45.79 66.43"/><path class="cls-2" d="M39.55,62.26l-1.89-4.7,65-44.76h0s-8.41,9.34-11.85,11.8Z"/><polyline class="cls-1" points="21.5 57.56 27.7 60.92 37.15 58"/><ellipse class="cls-1" cx="57.12" cy="46.84" rx="1.61" ry="1.59"/><line class="cls-1" x1="3.6" y1="21.08" x2="23.18" y2="1.5"/><line class="cls-1" x1="10.21" y1="27.69" x2="29.79" y2="8.11"/><line class="cls-1" x1="17.4" y1="34.89" x2="36.98" y2="15.3"/><line class="cls-1" x1="24.66" y1="42.15" x2="44.25" y2="22.56"/><line class="cls-1" x1="31.96" y1="49.45" x2="51.55" y2="29.86"/><line class="cls-1" x1="82.83" y1="100.31" x2="102.41" y2="80.73"/><line class="cls-1" x1="53.84" y1="71.33" x2="73.43" y2="51.74"/><line class="cls-1" x1="61.1" y1="78.58" x2="80.68" y2="59"/><line class="cls-1" x1="75.64" y1="93.12" x2="95.22" y2="73.54"/><line class="cls-1" x1="68.35" y1="85.84" x2="88.03" y2="66.35"/><line class="cls-1" x1="73.43" y1="51.74" x2="102.41" y2="80.73"/><line class="cls-1" x1="23.18" y1="1.5" x2="51.55" y2="29.86"/></g></g></svg>