<svg xmlns="http://www.w3.org/2000/svg" viewBox="0 0 111.75 111.66"><defs><style>.cls-1{fill:none;stroke:#d7699a;stroke-linecap:round;stroke-linejoin:round;stroke-width:3px;}</style></defs><title>restr</title><g id="Слой_2" data-name="Слой 2"><g id="Слой_1-2" data-name="Слой 1"><path class="cls-1" d="M105.5,7.5c-8-7.95-23.32-5.68-34,5-6.57,6.57-7.58,19.44-8,25-.13,1.73.23,3.77-1,5l-29,27a118.88,118.88,0,0,0-11,10C9.3,92.7.44,106.44,3.5,109.5s16.8-5.8,30-19a118.88,118.88,0,0,0,10-11l27-29c1.23-1.23,3.27-.87,5-1,5.56-.42,18.43-1.43,25-8C111.18,30.82,113.45,15.45,105.5,7.5Z"/><path class="cls-1" d="M62.5,71.5l7,8a123.23,123.23,0,0,0,10,12c13.2,13.2,26.94,21.06,30,18s-4.8-16.8-18-30a123.23,123.23,0,0,0-12-10l-7-7"/><line class="cls-1" x1="7.58" y1="14.49" x2="41.5" y2="48.5"/><line class="cls-1" x1="13.5" y1="7.5" x2="48.5" y2="42.5"/><path class="cls-1" d="M20.5,1.5l32,32a3.56,3.56,0,0,1,0,5l-15,15a2.84,2.84,0,0,1-4,0l-32-32"/></g></g></svg>